<?xml version="1.0" encoding="utf-8"?>
<!-- Generator: Adobe Illustrator 21.1.0, SVG Export Plug-In . SVG Version: 6.00 Build 0)  -->
<svg version="1.1" id="Layer_1" xmlns="http://www.w3.org/2000/svg" xmlns:xlink="http://www.w3.org/1999/xlink" x="0px" y="0px"
	 viewBox="0 0 641 353" style="enable-background:new 0 0 641 353;" xml:space="preserve">
<g>
	<path d="M558.6,167.4c1.8,0,2.7-0.4,2.5-2.4c-0.2-2-0.2-4.1,0-6.1c0.1-2-0.7-2.5-2.5-2.4c-9.5,0.1-19,0-28.4,0
		c-7.1,0-14.3,0-21.4,0c-2.2,0-3.1-0.8-3-3c0.1-1.8,0-3.6,0-5.3c0-3.2,0-3.2,3.2-3.2c16.5,0,33.1,0,49.6,0c1.8,0,2.7-0.4,2.5-2.4
		c-0.2-1.4,0-2.9,0-4.4c0-4.5,0.5-4.1-4-4.1c-16,0-31.9,0-47.9,0c-3.3,0-3.4-0.1-3.4-3.4c0-1.9,0-3.7,0-5.6c0-1.7,0.7-2.4,2.4-2.3
		c2.1,0.1,4.2,0,6.3,0c14.7,0,29.3,0,44,0c2,0,2.8-0.5,2.6-2.6c-0.2-1.9-0.1-3.9,0-5.8c0.1-1.9-0.4-2.5-2.4-2.5
		c-20.4,0.1-40.8,0.1-61.3,0c-1.9,0-2.5,0.4-2.5,2.4c0.1,16.9,0.1,33.7,0,50.6c0,2.1,0.8,2.5,2.7,2.5c10.1-0.1,20.3,0,30.4,0
		C538.2,167.4,548.4,167.3,558.6,167.4z"/>
	<path d="M340.3,164.9c0,2.1,0.7,2.5,2.7,2.5c20.3-0.1,40.5-0.1,60.8,0c2,0,2.8-0.4,2.8-2.7c-0.1-16.7-0.1-33.4,0-50.1
		c0-2.3-0.8-2.8-2.9-2.8c-10,0.1-20.1,0-30.1,0c-10.1,0-20.3,0.1-30.4,0c-2,0-2.8,0.4-2.8,2.7C340.4,131.3,340.4,148.1,340.3,164.9z
		 M351.2,125.9c0-2.3,0.7-3.1,3.1-3.1c12.8,0.1,25.6,0.1,38.4,0c2.2,0,3,0.7,3,2.9c-0.1,9.3-0.1,18.6,0,28c0,2.3-0.9,2.9-3.1,2.9
		c-6.4-0.1-12.8,0-19.2,0c-6.4,0-12.8-0.1-19.2,0c-2.2,0-3-0.7-3-2.9C351.2,144.4,351.3,135.1,351.2,125.9z"/>
	<path d="M420.6,167.4c20-0.1,40-0.1,60,0c2.2,0,2.9-0.6,2.9-2.8c-0.1-16.7-0.1-33.4,0-50.1c0-2-0.6-2.6-2.6-2.6
		c-10,0.1-20.1,0-30.1,0c-10.2,0-20.4,0-30.6,0c-1.9,0-2.7,0.6-2.5,2.5c0.1,1.5,0,3.1,0,4.6c0,3.8,0,3.8,3.7,3.8
		c16.1,0,32.2,0.1,48.4-0.1c2.4,0,3,0.7,3,3c-0.1,9.2,0,18.3,0,27.5c0,3.3,0,3.3-3.4,3.3c-15.9,0-31.8,0-47.6,0
		c-0.7,0-1.6-0.2-2.2,0.1c-0.7,0.4-1.6,1.1-1.7,1.7c-0.2,2,0,4.1-0.1,6.1C417.4,166.7,418.2,167.4,420.6,167.4z"/>
	<path d="M262.5,133.3c0,10.5,0,21.1,0,31.6c0,1.9,0.5,2.6,2.5,2.5c1.9-0.2,3.7-0.2,5.6,0c2.3,0.2,2.9-0.6,2.9-2.8
		c-0.1-12.6,0-25.1,0-37.7c0-4.1,0-4.1,4-4.1c12.1,0,24.2,0,36.2,0c4.2,0,4.2,0,4.2,4.1c0,12.6,0,25.3,0,37.9c0,2,0.6,2.7,2.6,2.6
		c1.9-0.1,3.9-0.2,5.8,0c1.9,0.2,2.5-0.6,2.5-2.5c-0.1-16.9-0.1-33.7,0-50.6c0-1.9-0.6-2.5-2.5-2.5c-10.2,0.1-20.4,0-30.6,0
		c-10.2,0-20.4,0-30.6,0c-1.9,0-2.5,0.5-2.5,2.5C262.6,120.7,262.5,127,262.5,133.3z"/>
	<path d="M606.8,230.4c0-3.2,0-3.2-3.1-3.2c-16.3,0-32.6,0-48.9,0c-3.1,0-3.3-0.2-3.3-3.3c0-9,0-18,0-27c0-3.2,0.2-3.4,3.2-3.4
		c12.6,0,25.1,0,37.7,0c4.1,0,8.3,0,12.4,0c1.5,0,2-0.5,2-2c-0.1-2.1-0.1-4.2,0-6.3c0.2-2-0.6-2.6-2.6-2.6c-20.3,0.1-40.7,0.1-61,0
		c-2,0-2.6,0.5-2.6,2.6c0.1,16.8,0.1,33.5,0,50.3c0,2,0.5,2.6,2.6,2.6c10.1-0.1,20.3,0,30.4,0c10.3,0,20.6,0,30.9,0
		c1.8,0,2.5-0.4,2.4-2.3C606.7,234,606.8,232.2,606.8,230.4z"/>
	<path d="M325.6,227.1c-16.4,0.1-32.7,0-49.1,0.1c-2.3,0-3.2-0.7-3.1-3.1c0.1-8.9,0-17.8,0-26.7c0-3.9,0-3.9,3.9-3.9
		c16,0,32.1,0,48.1,0c3.3,0,3.3,0,3.3-3.4c0-1.7-0.1-3.4,0-5.1c0.2-2-0.6-2.4-2.5-2.4c-20.4,0.1-40.8,0.1-61.3,0
		c-2,0-2.4,0.6-2.4,2.5c0.1,16.9,0.1,33.7,0,50.6c0,2,0.7,2.4,2.5,2.4c10.2-0.1,20.4,0,30.6,0c10.1,0,20.3-0.1,30.4,0.1
		c2.2,0,2.9-0.6,2.7-2.8c-0.2-1.7-0.2-3.4,0-5.1C329,227.7,328,227.1,325.6,227.1z"/>
	<path d="M506.7,185c0-1.9-0.5-2.5-2.5-2.5c-10.2,0.1-20.4,0-30.6,0c-10.2,0-20.4,0-30.6,0c-1.4,0-2.5-0.1-2.5,1.9
		c0.1,17.2,0,34.4,0,51.5c0,1.5,0.4,2.1,2,2c2-0.1,4.1-0.2,6.1,0c2.2,0.2,2.9-0.5,2.9-2.8c-0.1-12.7-0.1-25.4-0.1-38.2
		c0-3.6,0-3.6,3.7-3.6c12.3,0,24.6,0,37,0c3.7,0,3.7,0,3.7,3.8c0,12.7,0,25.4,0,38.2c0,2,0.6,2.8,2.6,2.6c1.9-0.1,3.9-0.1,5.8,0
		c1.9,0.1,2.5-0.5,2.5-2.5C506.6,218.7,506.6,201.9,506.7,185z"/>
	<path d="M403.5,227.1c-16.1,0.1-32.2,0-48.4,0.1c-4,0-4,0-4-3.8c0-12.8,0-25.6,0-38.4c0-1.8-0.6-2.5-2.4-2.4c-2,0.1-4.1,0.1-6.1,0
		c-1.9-0.1-2.5,0.5-2.5,2.5c0.1,16.8,0.1,33.7,0,50.5c0,2.1,0.8,2.5,2.7,2.5c10.1-0.1,20.2,0,30.4,0c10.2,0,20.4-0.1,30.6,0
		c2.1,0,2.7-0.6,2.6-2.6c-0.1-1.8-0.2-3.6,0-5.3C406.7,227.7,405.9,227.1,403.5,227.1z"/>
	<path d="M426.4,182.6c-1.9,0.1-3.9,0.1-5.8,0c-1.9-0.2-2.5,0.5-2.5,2.5c0.1,8.3,0,16.7,0,25c0,8.6,0,17.2,0,25.8
		c0,1.7,0.5,2.3,2.2,2.2c2.2-0.1,4.4-0.1,6.6,0c1.6,0.1,2.2-0.5,2.1-2.1c-0.1-3.6,0-7.1,0-10.7c0-13.4,0-26.7,0-40.1
		C429.1,183.1,428.4,182.4,426.4,182.6z"/>
	<path d="M526.6,182.6c-1.9,0.2-3.9,0.2-5.8,0c-1.9-0.2-2.5,0.5-2.5,2.5c0.1,8.3,0,16.7,0,25c0,8.6,0,17.2,0,25.8
		c0,1.7,0.5,2.3,2.2,2.2c2-0.1,4.1-0.1,6.1,0c2,0.1,2.7-0.5,2.6-2.6c-0.1-8.5,0-17,0-25.5c0-8.3,0-16.5,0-24.8
		C529.3,183.1,528.6,182.4,526.6,182.6z"/>
	<path d="M28.1,113.9L28.1,113.9v125.1l108.4,62.6l108.4-62.6V113.9l-108.4,62.6L28.1,113.9l108.4,62.6l108.4-62.6L136.5,51.4
		L28.1,113.9z M209,253l-0.2,0.1l-27.5-12.1v-28.6l27.7-16.2V253z M141,179.1l99.4-57.4v114.8L212,252.9v-61.7l-33.7,19.7v61.5
		L141,293.9V179.1z M32.6,121.7l99.4,57.4v114.8l-99.4-57.4L32.6,121.7z M136.5,171.3l-99.4-57.4l99.4-57.4l99.4,57.4L136.5,171.3z"
		/>
</g>
</svg>
